<svg xmlns="http://www.w3.org/2000/svg" xmlns:xlink="http://www.w3.org/1999/xlink" width="500" zoomAndPan="magnify" viewBox="0 0 375 374.999991" height="500" preserveAspectRatio="xMidYMid meet" version="1.0"><defs><clipPath id="a8f06c1820"><path d="M 2.792969 2.792969 L 372.207031 2.792969 L 372.207031 372.207031 L 2.792969 372.207031 Z M 2.792969 2.792969 " clip-rule="nonzero"/></clipPath><clipPath id="75c3f5821b"><path d="M 187.5 2.792969 C 85.488281 2.792969 2.792969 85.488281 2.792969 187.5 C 2.792969 289.511719 85.488281 372.207031 187.5 372.207031 C 289.511719 372.207031 372.207031 289.511719 372.207031 187.5 C 372.207031 85.488281 289.511719 2.792969 187.5 2.792969 Z M 187.5 2.792969 " clip-rule="nonzero"/></clipPath><clipPath id="5aa8732e50"><path d="M 0.792969 0.792969 L 370.207031 0.792969 L 370.207031 370.207031 L 0.792969 370.207031 Z M 0.792969 0.792969 " clip-rule="nonzero"/></clipPath><clipPath id="d8b49778be"><path d="M 185.5 0.792969 C 83.488281 0.792969 0.792969 83.488281 0.792969 185.5 C 0.792969 287.511719 83.488281 370.207031 185.5 370.207031 C 287.511719 370.207031 370.207031 287.511719 370.207031 185.5 C 370.207031 83.488281 287.511719 0.792969 185.5 0.792969 Z M 185.5 0.792969 " clip-rule="nonzero"/></clipPath><clipPath id="753955533f"><rect x="0" width="371" y="0" height="371"/></clipPath><clipPath id="574243db07"><path d="M 116.523438 177.90625 L 126.09375 177.90625 L 126.09375 187.476562 L 116.523438 187.476562 Z M 116.523438 177.90625 " clip-rule="nonzero"/></clipPath><clipPath id="7fa5740e92"><path d="M 121.308594 177.90625 C 118.667969 177.90625 116.523438 180.046875 116.523438 182.691406 C 116.523438 185.332031 118.667969 187.476562 121.308594 187.476562 C 123.953125 187.476562 126.09375 185.332031 126.09375 182.691406 C 126.09375 180.046875 123.953125 177.90625 121.308594 177.90625 Z M 121.308594 177.90625 " clip-rule="nonzero"/></clipPath><clipPath id="a7bd99e2e7"><path d="M 0.523438 0.90625 L 10.09375 0.90625 L 10.09375 10.476562 L 0.523438 10.476562 Z M 0.523438 0.90625 " clip-rule="nonzero"/></clipPath><clipPath id="1c81317e0a"><path d="M 5.308594 0.90625 C 2.667969 0.90625 0.523438 3.046875 0.523438 5.691406 C 0.523438 8.332031 2.667969 10.476562 5.308594 10.476562 C 7.953125 10.476562 10.09375 8.332031 10.09375 5.691406 C 10.09375 3.046875 7.953125 0.90625 5.308594 0.90625 Z M 5.308594 0.90625 " clip-rule="nonzero"/></clipPath><clipPath id="817a40b57d"><rect x="0" width="11" y="0" height="11"/></clipPath><clipPath id="b38b0a810a"><path d="M 0.191406 110 L 43 110 L 43 195 L 0.191406 195 Z M 0.191406 110 " clip-rule="nonzero"/></clipPath><clipPath id="35e0cdc545"><path d="M 292 110 L 334.597656 110 L 334.597656 195 L 292 195 Z M 292 110 " clip-rule="nonzero"/></clipPath><clipPath id="57de8c2e6b"><path d="M 151 0.5625 L 184 0.5625 L 184 32 L 151 32 Z M 151 0.5625 " clip-rule="nonzero"/></clipPath><clipPath id="86e8debd1b"><path d="M 146 230 L 199 230 L 199 272.4375 L 146 272.4375 Z M 146 230 " clip-rule="nonzero"/></clipPath><clipPath id="a0389efd28"><rect x="0" width="335" y="0" height="273"/></clipPath></defs><g clip-path="url(#a8f06c1820)"><g clip-path="url(#75c3f5821b)"><g transform="matrix(1, 0, 0, 1, 2, 2)"><g clip-path="url(#753955533f)"><g clip-path="url(#5aa8732e50)"><g clip-path="url(#d8b49778be)"><path fill="#000000" d="M 0.792969 0.792969 L 370.207031 0.792969 L 370.207031 370.207031 L 0.792969 370.207031 Z M 0.792969 0.792969 " fill-opacity="1" fill-rule="nonzero"/></g></g></g></g></g></g><g transform="matrix(1, 0, 0, 1, 20, 51)"><g clip-path="url(#a0389efd28)"><g clip-path="url(#574243db07)"><g clip-path="url(#7fa5740e92)"><g transform="matrix(1, 0, 0, 1, 116, 177)"><g clip-path="url(#817a40b57d)"><g clip-path="url(#a7bd99e2e7)"><g clip-path="url(#1c81317e0a)"><path fill="#ff5f57" d="M 0.523438 0.90625 L 10.09375 0.90625 L 10.09375 10.476562 L 0.523438 10.476562 Z M 0.523438 0.90625 " fill-opacity="1" fill-rule="nonzero"/></g></g></g></g></g></g><path fill="#ffffff" d="M 214.550781 152.183594 C 208.777344 152.183594 204.09375 147.503906 204.09375 141.726562 C 204.09375 135.953125 208.777344 131.273438 214.550781 131.273438 C 220.324219 131.273438 225.007812 135.953125 225.007812 141.726562 C 225.007812 147.503906 220.324219 152.183594 214.550781 152.183594 Z M 167.496094 186.113281 C 153.058594 186.113281 141.355469 176.75 141.355469 165.199219 L 193.636719 165.199219 C 193.636719 176.75 181.933594 186.113281 167.496094 186.113281 Z M 120.441406 152.183594 C 114.667969 152.183594 109.984375 147.503906 109.984375 141.726562 C 109.984375 135.953125 114.667969 131.273438 120.441406 131.273438 C 126.214844 131.273438 130.898438 135.953125 130.898438 141.726562 C 130.898438 147.503906 126.214844 152.183594 120.441406 152.183594 Z M 209.324219 89.445312 L 125.671875 89.445312 C 108.347656 89.445312 92.660156 96.46875 81.308594 107.820312 C 69.953125 119.175781 62.929688 134.859375 62.929688 152.183594 C 62.929688 186.835938 91.019531 214.921875 125.671875 214.921875 L 209.324219 214.921875 C 226.648438 214.921875 242.332031 207.902344 253.683594 196.546875 C 265.039062 185.195312 272.0625 169.507812 272.0625 152.183594 C 272.0625 117.535156 243.972656 89.445312 209.324219 89.445312 " fill-opacity="1" fill-rule="nonzero"/><path fill="#ffffff" d="M 167.496094 256.75 L 136.125 256.75 C 122.011719 256.75 108.316406 253.984375 95.425781 248.53125 C 82.972656 243.261719 71.789062 235.722656 62.1875 226.121094 C 52.585938 216.523438 45.046875 205.339844 39.78125 192.886719 C 34.328125 179.992188 31.5625 166.296875 31.5625 152.183594 C 31.5625 138.070312 34.328125 124.375 39.78125 111.480469 C 45.046875 99.03125 52.585938 87.847656 62.1875 78.246094 C 71.789062 68.644531 82.972656 61.105469 95.425781 55.839844 C 108.316406 50.382812 122.011719 47.621094 136.125 47.621094 L 198.867188 47.621094 C 212.980469 47.621094 226.671875 50.382812 239.570312 55.839844 C 252.019531 61.105469 263.203125 68.644531 272.804688 78.246094 C 282.40625 87.847656 289.945312 99.03125 295.210938 111.480469 C 300.667969 124.375 303.429688 138.070312 303.429688 152.183594 L 292.972656 152.183594 C 292.972656 100.292969 250.757812 58.078125 198.867188 58.078125 L 136.125 58.078125 C 84.234375 58.078125 42.019531 100.292969 42.019531 152.183594 C 42.019531 204.078125 84.234375 246.292969 136.125 246.292969 L 167.496094 246.292969 L 167.496094 256.75 " fill-opacity="1" fill-rule="nonzero"/><g clip-path="url(#b38b0a810a)"><path fill="#ffffff" d="M 42.019531 194.011719 C 18.917969 194.011719 0.191406 175.285156 0.191406 152.183594 C 0.191406 129.085938 18.917969 110.359375 42.019531 110.359375 L 42.019531 194.011719 " fill-opacity="1" fill-rule="nonzero"/></g><g clip-path="url(#35e0cdc545)"><path fill="#ffffff" d="M 292.972656 194.011719 C 316.074219 194.011719 334.800781 175.285156 334.800781 152.183594 C 334.800781 129.085938 316.074219 110.359375 292.972656 110.359375 L 292.972656 194.011719 " fill-opacity="1" fill-rule="nonzero"/></g><path fill="#ffffff" d="M 193.636719 94.675781 C 193.636719 106.222656 181.933594 115.585938 167.496094 115.585938 C 153.058594 115.585938 141.355469 106.222656 141.355469 94.675781 C 141.355469 83.125 153.058594 73.761719 167.496094 73.761719 C 181.933594 73.761719 193.636719 83.125 193.636719 94.675781 " fill-opacity="1" fill-rule="nonzero"/><g clip-path="url(#57de8c2e6b)"><path fill="#ffffff" d="M 183.179688 16.25 C 183.179688 24.914062 176.160156 31.933594 167.496094 31.933594 C 158.832031 31.933594 151.8125 24.914062 151.8125 16.25 C 151.8125 7.585938 158.832031 0.566406 167.496094 0.566406 C 176.160156 0.566406 183.179688 7.585938 183.179688 16.25 " fill-opacity="1" fill-rule="nonzero"/></g><g clip-path="url(#86e8debd1b)"><path fill="#ffffff" d="M 198.867188 251.523438 C 198.867188 263.070312 187.160156 272.433594 172.722656 272.433594 C 158.289062 272.433594 146.582031 263.070312 146.582031 251.523438 C 146.582031 239.972656 158.289062 230.609375 172.722656 230.609375 C 187.160156 230.609375 198.867188 239.972656 198.867188 251.523438 " fill-opacity="1" fill-rule="nonzero"/></g><path fill="#ffffff" d="M 172.722656 110.582031 L 162.269531 110.582031 L 162.269531 16.25 L 172.722656 16.25 L 172.722656 110.582031 " fill-opacity="1" fill-rule="nonzero"/></g></g></svg>