<svg xmlns="http://www.w3.org/2000/svg" xmlns:xlink="http://www.w3.org/1999/xlink" width="1200" zoomAndPan="magnify" viewBox="0 0 900 472.499986" height="630" preserveAspectRatio="xMidYMid meet" version="1.0"><defs><g/><clipPath id="218c69c9c6"><path d="M 849 225 L 889.792969 225 L 889.792969 267 L 849 267 Z M 849 225 " clip-rule="nonzero"/></clipPath><clipPath id="fed76f83c6"><path d="M 121.105469 243 L 870 243 L 870 345.53125 L 121.105469 345.53125 Z M 121.105469 243 " clip-rule="nonzero"/></clipPath><clipPath id="df2e58fc3a"><path d="M 849 225 L 889.792969 225 L 889.792969 267 L 849 267 Z M 849 225 " clip-rule="nonzero"/></clipPath><clipPath id="b4d8c8a3ea"><path d="M 121.105469 243 L 870 243 L 870 345.53125 L 121.105469 345.53125 Z M 121.105469 243 " clip-rule="nonzero"/></clipPath><clipPath id="20261d4172"><path d="M 661 193.445312 L 702 193.445312 L 702 235 L 661 235 Z M 661 193.445312 " clip-rule="nonzero"/></clipPath><clipPath id="7ac6e81594"><rect x="0" width="449" y="0" height="173"/></clipPath></defs><path fill="#f4f4f4" d="M 662.707031 280.03125 C 662.707031 280.917969 662.621094 281.792969 662.449219 282.664062 C 662.277344 283.53125 662.019531 284.375 661.679688 285.195312 C 661.34375 286.011719 660.925781 286.789062 660.433594 287.527344 C 659.941406 288.261719 659.382812 288.945312 658.757812 289.570312 C 658.128906 290.199219 657.449219 290.757812 656.710938 291.25 C 655.976562 291.742188 655.199219 292.15625 654.378906 292.496094 C 653.558594 292.835938 652.714844 293.089844 651.847656 293.265625 C 650.980469 293.4375 650.101562 293.523438 649.214844 293.523438 C 648.328125 293.523438 647.453125 293.4375 646.582031 293.265625 C 645.714844 293.089844 644.871094 292.835938 644.050781 292.496094 C 643.234375 292.15625 642.457031 291.742188 641.71875 291.25 C 640.984375 290.757812 640.300781 290.199219 639.675781 289.570312 C 639.046875 288.945312 638.488281 288.261719 637.996094 287.527344 C 637.503906 286.789062 637.089844 286.011719 636.75 285.195312 C 636.410156 284.375 636.15625 283.53125 635.980469 282.664062 C 635.808594 281.792969 635.722656 280.917969 635.722656 280.03125 C 635.722656 279.144531 635.808594 278.265625 635.980469 277.398438 C 636.15625 276.527344 636.410156 275.683594 636.75 274.867188 C 637.089844 274.046875 637.503906 273.269531 637.996094 272.535156 C 638.488281 271.796875 639.046875 271.117188 639.675781 270.488281 C 640.300781 269.863281 640.984375 269.304688 641.71875 268.8125 C 642.457031 268.320312 643.234375 267.902344 644.050781 267.566406 C 644.871094 267.226562 645.714844 266.96875 646.582031 266.796875 C 647.453125 266.625 648.328125 266.539062 649.214844 266.539062 C 650.101562 266.539062 650.980469 266.625 651.847656 266.796875 C 652.714844 266.96875 653.558594 267.226562 654.378906 267.566406 C 655.199219 267.902344 655.976562 268.320312 656.710938 268.8125 C 657.449219 269.304688 658.128906 269.863281 658.757812 270.488281 C 659.382812 271.117188 659.941406 271.796875 660.433594 272.535156 C 660.925781 273.269531 661.34375 274.046875 661.679688 274.867188 C 662.019531 275.683594 662.277344 276.527344 662.449219 277.398438 C 662.621094 278.265625 662.707031 279.144531 662.707031 280.03125 Z M 662.707031 280.03125 " fill-opacity="1" fill-rule="nonzero"/><path fill="#f4f4f4" d="M 648.441406 283.402344 L 129.441406 280.546875 L 648.441406 277.652344 Z M 648.441406 283.402344 " fill-opacity="1" fill-rule="nonzero"/><g clip-path="url(#218c69c9c6)"><path fill="#f4f4f4" d="M 890.144531 246.066406 C 890.144531 246.734375 890.109375 247.398438 890.046875 248.058594 C 889.980469 248.722656 889.882812 249.382812 889.753906 250.035156 C 889.621094 250.6875 889.460938 251.332031 889.269531 251.96875 C 889.074219 252.605469 888.851562 253.234375 888.59375 253.847656 C 888.339844 254.464844 888.054688 255.066406 887.742188 255.652344 C 887.429688 256.238281 887.085938 256.808594 886.714844 257.363281 C 886.347656 257.917969 885.949219 258.453125 885.527344 258.964844 C 885.105469 259.480469 884.660156 259.972656 884.1875 260.445312 C 883.71875 260.914062 883.222656 261.363281 882.710938 261.785156 C 882.195312 262.207031 881.660156 262.601562 881.105469 262.972656 C 880.554688 263.34375 879.984375 263.683594 879.394531 264 C 878.808594 264.3125 878.207031 264.597656 877.589844 264.851562 C 876.976562 265.105469 876.351562 265.332031 875.714844 265.523438 C 875.074219 265.71875 874.429688 265.878906 873.777344 266.007812 C 873.125 266.140625 872.464844 266.238281 871.804688 266.300781 C 871.140625 266.367188 870.476562 266.398438 869.8125 266.398438 C 869.144531 266.398438 868.480469 266.367188 867.816406 266.300781 C 867.15625 266.238281 866.496094 266.140625 865.84375 266.007812 C 865.191406 265.878906 864.546875 265.71875 863.910156 265.523438 C 863.269531 265.332031 862.644531 265.105469 862.03125 264.851562 C 861.414062 264.597656 860.8125 264.3125 860.226562 264 C 859.640625 263.683594 859.070312 263.34375 858.515625 262.972656 C 857.960938 262.601562 857.425781 262.207031 856.914062 261.785156 C 856.398438 261.363281 855.90625 260.914062 855.433594 260.445312 C 854.960938 259.972656 854.515625 259.480469 854.09375 258.964844 C 853.671875 258.453125 853.273438 257.917969 852.90625 257.363281 C 852.535156 256.808594 852.191406 256.238281 851.878906 255.652344 C 851.566406 255.066406 851.28125 254.464844 851.027344 253.847656 C 850.769531 253.234375 850.546875 252.605469 850.355469 251.96875 C 850.160156 251.332031 850 250.6875 849.871094 250.035156 C 849.738281 249.382812 849.640625 248.722656 849.578125 248.058594 C 849.511719 247.398438 849.480469 246.734375 849.480469 246.066406 C 849.480469 245.402344 849.511719 244.738281 849.578125 244.074219 C 849.640625 243.410156 849.738281 242.753906 849.871094 242.101562 C 850 241.449219 850.160156 240.800781 850.355469 240.164062 C 850.546875 239.527344 850.769531 238.902344 851.027344 238.285156 C 851.28125 237.671875 851.566406 237.070312 851.878906 236.484375 C 852.191406 235.894531 852.535156 235.324219 852.90625 234.769531 C 853.273438 234.21875 853.671875 233.683594 854.09375 233.167969 C 854.515625 232.652344 854.960938 232.160156 855.433594 231.691406 C 855.90625 231.21875 856.398438 230.773438 856.914062 230.351562 C 857.425781 229.929688 857.960938 229.53125 858.515625 229.160156 C 859.070312 228.792969 859.640625 228.449219 860.226562 228.136719 C 860.8125 227.820312 861.414062 227.539062 862.03125 227.28125 C 862.644531 227.027344 863.273438 226.804688 863.910156 226.609375 C 864.546875 226.417969 865.191406 226.253906 865.84375 226.125 C 866.496094 225.996094 867.15625 225.898438 867.816406 225.832031 C 868.480469 225.769531 869.144531 225.734375 869.8125 225.734375 C 870.476562 225.734375 871.140625 225.769531 871.804688 225.832031 C 872.464844 225.898438 873.125 225.996094 873.777344 226.125 C 874.429688 226.253906 875.074219 226.417969 875.714844 226.609375 C 876.351562 226.804688 876.976562 227.027344 877.589844 227.28125 C 878.207031 227.539062 878.808594 227.820312 879.394531 228.136719 C 879.984375 228.449219 880.554688 228.792969 881.105469 229.160156 C 881.660156 229.53125 882.195312 229.929688 882.710938 230.351562 C 883.222656 230.773438 883.71875 231.21875 884.1875 231.691406 C 884.660156 232.160156 885.105469 232.652344 885.527344 233.167969 C 885.949219 233.683594 886.347656 234.21875 886.714844 234.769531 C 887.085938 235.324219 887.429688 235.894531 887.742188 236.484375 C 888.054688 237.070312 888.339844 237.671875 888.59375 238.285156 C 888.851562 238.902344 889.074219 239.527344 889.269531 240.164062 C 889.460938 240.800781 889.621094 241.449219 889.753906 242.101562 C 889.882812 242.753906 889.980469 243.410156 890.046875 244.074219 C 890.109375 244.738281 890.144531 245.402344 890.144531 246.066406 Z M 890.144531 246.066406 " fill-opacity="1" fill-rule="nonzero"/></g><g clip-path="url(#fed76f83c6)"><path fill="#f4f4f4" d="M 869.996094 248.941406 L 527.933594 247.714844 L 529.257812 247.148438 L 435.238281 344.703125 L 434.832031 345.121094 L 434.265625 345.121094 L 121.105469 343.773438 L 434.265625 342.425781 L 433.289062 342.839844 L 526.605469 244.609375 L 527.144531 244.042969 L 527.933594 244.042969 L 869.996094 243.195312 Z M 869.996094 248.941406 " fill-opacity="1" fill-rule="nonzero"/></g><g clip-path="url(#df2e58fc3a)"><path fill="#f4f4f4" d="M 890.144531 246.066406 C 890.144531 246.734375 890.109375 247.398438 890.046875 248.058594 C 889.980469 248.722656 889.882812 249.382812 889.753906 250.035156 C 889.621094 250.6875 889.460938 251.332031 889.269531 251.96875 C 889.074219 252.605469 888.851562 253.234375 888.59375 253.847656 C 888.339844 254.464844 888.054688 255.066406 887.742188 255.652344 C 887.429688 256.238281 887.085938 256.808594 886.714844 257.363281 C 886.347656 257.917969 885.949219 258.453125 885.527344 258.964844 C 885.105469 259.480469 884.660156 259.972656 884.1875 260.445312 C 883.71875 260.914062 883.222656 261.363281 882.710938 261.785156 C 882.195312 262.207031 881.660156 262.601562 881.105469 262.972656 C 880.554688 263.34375 879.984375 263.683594 879.394531 264 C 878.808594 264.3125 878.207031 264.597656 877.589844 264.851562 C 876.976562 265.105469 876.351562 265.332031 875.714844 265.523438 C 875.074219 265.71875 874.429688 265.878906 873.777344 266.007812 C 873.125 266.140625 872.464844 266.238281 871.804688 266.300781 C 871.140625 266.367188 870.476562 266.398438 869.8125 266.398438 C 869.144531 266.398438 868.480469 266.367188 867.816406 266.300781 C 867.15625 266.238281 866.496094 266.140625 865.84375 266.007812 C 865.191406 265.878906 864.546875 265.71875 863.910156 265.523438 C 863.269531 265.332031 862.644531 265.105469 862.03125 264.851562 C 861.414062 264.597656 860.8125 264.3125 860.226562 264 C 859.640625 263.683594 859.070312 263.34375 858.515625 262.972656 C 857.960938 262.601562 857.425781 262.207031 856.914062 261.785156 C 856.398438 261.363281 855.90625 260.914062 855.433594 260.445312 C 854.960938 259.972656 854.515625 259.480469 854.09375 258.964844 C 853.671875 258.453125 853.273438 257.917969 852.90625 257.363281 C 852.535156 256.808594 852.191406 256.238281 851.878906 255.652344 C 851.566406 255.066406 851.28125 254.464844 851.027344 253.847656 C 850.769531 253.234375 850.546875 252.605469 850.355469 251.96875 C 850.160156 251.332031 850 250.6875 849.871094 250.035156 C 849.738281 249.382812 849.640625 248.722656 849.578125 248.058594 C 849.511719 247.398438 849.480469 246.734375 849.480469 246.066406 C 849.480469 245.402344 849.511719 244.738281 849.578125 244.074219 C 849.640625 243.410156 849.738281 242.753906 849.871094 242.101562 C 850 241.449219 850.160156 240.800781 850.355469 240.164062 C 850.546875 239.527344 850.769531 238.902344 851.027344 238.285156 C 851.28125 237.671875 851.566406 237.070312 851.878906 236.484375 C 852.191406 235.894531 852.535156 235.324219 852.90625 234.769531 C 853.273438 234.21875 853.671875 233.683594 854.09375 233.167969 C 854.515625 232.652344 854.960938 232.160156 855.433594 231.691406 C 855.90625 231.21875 856.398438 230.773438 856.914062 230.351562 C 857.425781 229.929688 857.960938 229.53125 858.515625 229.160156 C 859.070312 228.792969 859.640625 228.449219 860.226562 228.136719 C 860.8125 227.820312 861.414062 227.539062 862.03125 227.28125 C 862.644531 227.027344 863.273438 226.804688 863.910156 226.609375 C 864.546875 226.417969 865.191406 226.253906 865.84375 226.125 C 866.496094 225.996094 867.15625 225.898438 867.816406 225.832031 C 868.480469 225.769531 869.144531 225.734375 869.8125 225.734375 C 870.476562 225.734375 871.140625 225.769531 871.804688 225.832031 C 872.464844 225.898438 873.125 225.996094 873.777344 226.125 C 874.429688 226.253906 875.074219 226.417969 875.714844 226.609375 C 876.351562 226.804688 876.976562 227.027344 877.589844 227.28125 C 878.207031 227.539062 878.808594 227.820312 879.394531 228.136719 C 879.984375 228.449219 880.554688 228.792969 881.105469 229.160156 C 881.660156 229.53125 882.195312 229.929688 882.710938 230.351562 C 883.222656 230.773438 883.71875 231.21875 884.1875 231.691406 C 884.660156 232.160156 885.105469 232.652344 885.527344 233.167969 C 885.949219 233.683594 886.347656 234.21875 886.714844 234.769531 C 887.085938 235.324219 887.429688 235.894531 887.742188 236.484375 C 888.054688 237.070312 888.339844 237.671875 888.59375 238.285156 C 888.851562 238.902344 889.074219 239.527344 889.269531 240.164062 C 889.460938 240.800781 889.621094 241.449219 889.753906 242.101562 C 889.882812 242.753906 889.980469 243.410156 890.046875 244.074219 C 890.109375 244.738281 890.144531 245.402344 890.144531 246.066406 Z M 890.144531 246.066406 " fill-opacity="1" fill-rule="nonzero"/></g><g clip-path="url(#b4d8c8a3ea)"><path fill="#f4f4f4" d="M 869.996094 248.941406 L 527.933594 247.714844 L 529.257812 247.148438 L 435.238281 344.703125 L 434.832031 345.121094 L 434.265625 345.121094 L 121.105469 343.773438 L 434.265625 342.425781 L 433.289062 342.839844 L 526.605469 244.609375 L 527.144531 244.042969 L 527.933594 244.042969 L 869.996094 243.195312 Z M 869.996094 248.941406 " fill-opacity="1" fill-rule="nonzero"/></g><g clip-path="url(#20261d4172)"><path fill="#f4f4f4" d="M 701.90625 213.945312 C 701.90625 214.613281 701.875 215.277344 701.808594 215.941406 C 701.746094 216.601562 701.648438 217.261719 701.515625 217.914062 C 701.386719 218.566406 701.226562 219.210938 701.03125 219.847656 C 700.839844 220.484375 700.613281 221.113281 700.359375 221.726562 C 700.105469 222.34375 699.820312 222.945312 699.507812 223.53125 C 699.191406 224.117188 698.851562 224.6875 698.480469 225.242188 C 698.109375 225.796875 697.714844 226.332031 697.292969 226.84375 C 696.871094 227.359375 696.421875 227.851562 695.953125 228.324219 C 695.480469 228.792969 694.988281 229.242188 694.472656 229.664062 C 693.957031 230.085938 693.425781 230.480469 692.871094 230.851562 C 692.316406 231.222656 691.746094 231.5625 691.160156 231.878906 C 690.570312 232.191406 689.972656 232.476562 689.355469 232.730469 C 688.742188 232.984375 688.113281 233.210938 687.476562 233.402344 C 686.839844 233.597656 686.195312 233.757812 685.542969 233.886719 C 684.886719 234.019531 684.230469 234.117188 683.566406 234.179688 C 682.90625 234.246094 682.242188 234.277344 681.574219 234.277344 C 680.910156 234.277344 680.246094 234.246094 679.582031 234.179688 C 678.917969 234.117188 678.261719 234.019531 677.609375 233.886719 C 676.957031 233.757812 676.308594 233.597656 675.671875 233.402344 C 675.035156 233.210938 674.410156 232.984375 673.792969 232.730469 C 673.179688 232.476562 672.578125 232.191406 671.992188 231.878906 C 671.402344 231.5625 670.832031 231.222656 670.277344 230.851562 C 669.726562 230.480469 669.191406 230.085938 668.675781 229.664062 C 668.160156 229.242188 667.667969 228.792969 667.199219 228.324219 C 666.726562 227.851562 666.28125 227.359375 665.859375 226.84375 C 665.433594 226.332031 665.039062 225.796875 664.667969 225.242188 C 664.300781 224.6875 663.957031 224.117188 663.644531 223.53125 C 663.328125 222.945312 663.046875 222.34375 662.789062 221.726562 C 662.535156 221.113281 662.3125 220.484375 662.117188 219.847656 C 661.925781 219.210938 661.761719 218.566406 661.632812 217.914062 C 661.503906 217.261719 661.40625 216.601562 661.339844 215.941406 C 661.273438 215.277344 661.242188 214.613281 661.242188 213.945312 C 661.242188 213.28125 661.273438 212.617188 661.339844 211.953125 C 661.40625 211.292969 661.503906 210.632812 661.632812 209.980469 C 661.761719 209.328125 661.925781 208.683594 662.117188 208.042969 C 662.3125 207.40625 662.535156 206.78125 662.789062 206.164062 C 663.046875 205.550781 663.328125 204.949219 663.644531 204.363281 C 663.957031 203.773438 664.300781 203.203125 664.667969 202.652344 C 665.039062 202.097656 665.433594 201.5625 665.859375 201.046875 C 666.28125 200.53125 666.726562 200.039062 667.199219 199.570312 C 667.667969 199.097656 668.160156 198.652344 668.675781 198.230469 C 669.191406 197.808594 669.726562 197.410156 670.277344 197.039062 C 670.832031 196.671875 671.402344 196.328125 671.992188 196.015625 C 672.578125 195.699219 673.179688 195.417969 673.792969 195.160156 C 674.410156 194.90625 675.035156 194.683594 675.671875 194.488281 C 676.308594 194.296875 676.957031 194.136719 677.609375 194.003906 C 678.261719 193.875 678.917969 193.777344 679.582031 193.710938 C 680.246094 193.648438 680.910156 193.613281 681.574219 193.613281 C 682.242188 193.613281 682.90625 193.648438 683.566406 193.710938 C 684.230469 193.777344 684.886719 193.875 685.542969 194.003906 C 686.195312 194.136719 686.839844 194.296875 687.476562 194.488281 C 688.113281 194.683594 688.742188 194.90625 689.355469 195.160156 C 689.972656 195.417969 690.570312 195.699219 691.160156 196.015625 C 691.746094 196.328125 692.316406 196.671875 692.871094 197.039062 C 693.425781 197.410156 693.957031 197.808594 694.472656 198.230469 C 694.988281 198.652344 695.480469 199.097656 695.953125 199.570312 C 696.421875 200.039062 696.871094 200.53125 697.292969 201.046875 C 697.714844 201.5625 698.109375 202.097656 698.480469 202.652344 C 698.851562 203.203125 699.191406 203.773438 699.507812 204.363281 C 699.820312 204.949219 700.105469 205.550781 700.359375 206.164062 C 700.613281 206.78125 700.839844 207.40625 701.03125 208.042969 C 701.226562 208.683594 701.386719 209.328125 701.515625 209.980469 C 701.648438 210.632812 701.746094 211.292969 701.808594 211.953125 C 701.875 212.617188 701.90625 213.28125 701.90625 213.945312 Z M 701.90625 213.945312 " fill-opacity="1" fill-rule="nonzero"/></g><path fill="#f4f4f4" d="M 678.054688 216.820312 L 628.542969 216.566406 L 603.785156 216.445312 L 591.410156 216.398438 L 588.539062 216.398438 C 588.496094 220.679688 588.765625 210.5625 588.554688 211.597656 L 588.585938 211.597656 L 591.648438 211.628906 L 597.835938 211.683594 L 604.027344 211.738281 L 607.152344 211.777344 L 607.316406 211.777344 C 607.570312 210.785156 607.261719 220.496094 607.273438 216.375 L 604.253906 216.375 L 591.871094 216.324219 L 567.113281 216.207031 L 517.597656 215.953125 L 518.90625 215.402344 L 424.871094 310.304688 L 424.46875 310.710938 L 423.90625 310.710938 L 123.40625 309.359375 L 423.917969 308.011719 L 422.957031 308.414062 L 516.277344 212.847656 L 516.808594 212.304688 L 517.589844 212.304688 L 567.101562 212.039062 L 591.855469 211.898438 L 604.230469 211.816406 L 607.113281 211.816406 C 607.152344 207.710938 606.898438 217.414062 607.097656 216.414062 L 588.332031 216.414062 C 588.066406 217.449219 588.390625 207.324219 588.378906 211.605469 L 591.394531 211.605469 L 603.777344 211.527344 L 628.535156 211.386719 L 678.050781 211.121094 Z M 678.054688 216.820312 " fill-opacity="1" fill-rule="nonzero"/><g transform="matrix(1, 0, 0, 1, 9, 126)"><g clip-path="url(#7ac6e81594)"><g fill="#f4f4f4" fill-opacity="1"><g transform="translate(0.852511, 138.940145)"><g><path d="M 45.96875 0 L 9.046875 0 L 9.046875 -104.15625 L 46.28125 -104.15625 C 56.757812 -104.15625 65.785156 -102.078125 73.359375 -97.921875 C 80.941406 -93.773438 86.765625 -87.816406 90.828125 -80.046875 C 94.898438 -72.285156 96.9375 -63 96.9375 -52.1875 C 96.9375 -41.332031 94.894531 -32.003906 90.8125 -24.203125 C 86.726562 -16.410156 80.878906 -10.425781 73.265625 -6.25 C 65.648438 -2.082031 56.550781 0 45.96875 0 Z M 31.078125 -18.875 L 45.0625 -18.875 C 54.863281 -18.875 62.296875 -21.515625 67.359375 -26.796875 C 72.429688 -32.085938 74.96875 -40.550781 74.96875 -52.1875 C 74.96875 -63.75 72.429688 -72.15625 67.359375 -77.40625 C 62.296875 -82.664062 54.878906 -85.296875 45.109375 -85.296875 L 31.078125 -85.296875 Z M 31.078125 -18.875 "/></g></g></g><g fill="#f4f4f4" fill-opacity="1"><g transform="translate(98.545523, 138.940145)"><g><path d="M 100.953125 -67.6875 L 78.671875 -67.6875 C 77.828125 -73.414062 75.382812 -77.914062 71.34375 -81.1875 C 67.3125 -84.46875 62.28125 -86.109375 56.25 -86.109375 C 48.175781 -86.109375 41.707031 -83.148438 36.84375 -77.234375 C 31.976562 -71.316406 29.546875 -62.929688 29.546875 -52.078125 C 29.546875 -40.953125 31.992188 -32.5 36.890625 -26.71875 C 41.796875 -20.945312 48.195312 -18.0625 56.09375 -18.0625 C 61.957031 -18.0625 66.925781 -19.59375 71 -22.65625 C 75.070312 -25.726562 77.628906 -30.039062 78.671875 -35.59375 L 100.953125 -35.5 C 100.171875 -29.125 97.898438 -23.117188 94.140625 -17.484375 C 90.378906 -11.859375 85.269531 -7.300781 78.8125 -3.8125 C 72.351562 -0.320312 64.660156 1.421875 55.734375 1.421875 C 46.453125 1.421875 38.15625 -0.675781 30.84375 -4.875 C 23.539062 -9.082031 17.773438 -15.171875 13.546875 -23.140625 C 9.328125 -31.109375 7.21875 -40.753906 7.21875 -52.078125 C 7.21875 -63.441406 9.351562 -73.101562 13.625 -81.0625 C 17.894531 -89.03125 23.691406 -95.109375 31.015625 -99.296875 C 38.347656 -103.484375 46.585938 -105.578125 55.734375 -105.578125 C 63.773438 -105.578125 71.023438 -104.09375 77.484375 -101.125 C 83.941406 -98.164062 89.226562 -93.863281 93.34375 -88.21875 C 97.46875 -82.570312 100.003906 -75.726562 100.953125 -67.6875 Z M 100.953125 -67.6875 "/></g></g></g><g fill="#f4f4f4" fill-opacity="1"><g transform="translate(199.797957, 138.940145)"><g><path d="M 5.078125 -86 L 5.078125 -104.15625 L 90.625 -104.15625 L 90.625 -86 L 58.734375 -86 L 58.734375 0 L 36.96875 0 L 36.96875 -86 Z M 5.078125 -86 "/></g></g></g><g fill="#f4f4f4" fill-opacity="1"><g transform="translate(289.050067, 138.940145)"><g><path d="M 44.25 1.53125 C 36.25 1.53125 29.347656 -0.101562 23.546875 -3.375 C 17.742188 -6.65625 13.285156 -11.300781 10.171875 -17.3125 C 7.054688 -23.332031 5.5 -30.460938 5.5 -38.703125 C 5.5 -46.734375 7.054688 -53.785156 10.171875 -59.859375 C 13.285156 -65.929688 17.679688 -70.660156 23.359375 -74.046875 C 29.046875 -77.441406 35.71875 -79.140625 43.375 -79.140625 C 50.257812 -79.140625 56.472656 -77.679688 62.015625 -74.765625 C 67.566406 -71.847656 71.96875 -67.445312 75.21875 -61.5625 C 78.476562 -55.675781 80.109375 -48.3125 80.109375 -39.46875 L 80.109375 -33.515625 L 26.90625 -33.515625 L 26.90625 -33.46875 C 26.90625 -27.632812 28.5 -23.035156 31.6875 -19.671875 C 34.875 -16.316406 39.179688 -14.640625 44.609375 -14.640625 C 48.234375 -14.640625 51.367188 -15.398438 54.015625 -16.921875 C 56.660156 -18.453125 58.523438 -20.710938 59.609375 -23.703125 L 79.640625 -22.375 C 78.117188 -15.125 74.253906 -9.328125 68.046875 -4.984375 C 61.835938 -0.640625 53.90625 1.53125 44.25 1.53125 Z M 26.90625 -46.9375 L 59.703125 -46.9375 C 59.671875 -51.582031 58.179688 -55.414062 55.234375 -58.4375 C 52.285156 -61.457031 48.453125 -62.96875 43.734375 -62.96875 C 38.921875 -62.96875 34.972656 -61.40625 31.890625 -58.28125 C 28.804688 -55.164062 27.144531 -51.382812 26.90625 -46.9375 Z M 26.90625 -46.9375 "/></g></g></g><g fill="#f4f4f4" fill-opacity="1"><g transform="translate(368.183306, 138.940145)"><g><path d="M 43.9375 1.53125 C 35.9375 1.53125 29.0625 -0.171875 23.3125 -3.578125 C 17.570312 -6.992188 13.164062 -11.734375 10.09375 -17.796875 C 7.03125 -23.867188 5.5 -30.851562 5.5 -38.75 C 5.5 -46.75 7.046875 -53.773438 10.140625 -59.828125 C 13.242188 -65.878906 17.660156 -70.609375 23.390625 -74.015625 C 29.117188 -77.429688 35.9375 -79.140625 43.84375 -79.140625 C 50.65625 -79.140625 56.628906 -77.898438 61.765625 -75.421875 C 66.898438 -72.953125 70.953125 -69.476562 73.921875 -65 C 76.890625 -60.519531 78.523438 -55.265625 78.828125 -49.234375 L 58.390625 -49.234375 C 57.804688 -53.128906 56.285156 -56.269531 53.828125 -58.65625 C 51.367188 -61.050781 48.160156 -62.25 44.203125 -62.25 C 39.179688 -62.25 35.144531 -60.226562 32.09375 -56.1875 C 29.039062 -52.15625 27.515625 -46.445312 27.515625 -39.0625 C 27.515625 -31.601562 29.03125 -25.828125 32.0625 -21.734375 C 35.101562 -17.648438 39.148438 -15.609375 44.203125 -15.609375 C 47.929688 -15.609375 51.066406 -16.734375 53.609375 -18.984375 C 56.148438 -21.242188 57.742188 -24.460938 58.390625 -28.640625 L 78.828125 -28.640625 C 78.492188 -22.671875 76.875 -17.410156 73.96875 -12.859375 C 71.070312 -8.316406 67.082031 -4.78125 62 -2.25 C 56.914062 0.269531 50.894531 1.53125 43.9375 1.53125 Z M 43.9375 1.53125 "/></g></g></g></g></g></svg>