<svg xmlns="http://www.w3.org/2000/svg" xmlns:xlink="http://www.w3.org/1999/xlink" width="80" zoomAndPan="magnify" viewBox="0 0 60 30.000001" height="40" preserveAspectRatio="xMidYMid meet" version="1.0"><defs><g/><clipPath id="65040213ea"><path d="M 0.96875 8 L 59.03125 8 L 59.03125 21 L 0.96875 21 Z M 0.96875 8 " clip-rule="nonzero"/></clipPath><clipPath id="6b84639c04"><path d="M 56 5 L 58.769531 5 L 58.769531 9 L 56 9 Z M 56 5 " clip-rule="nonzero"/></clipPath><clipPath id="736c5dfb33"><path d="M 15.800781 6 L 58 6 L 58 12.671875 L 15.800781 12.671875 Z M 15.800781 6 " clip-rule="nonzero"/></clipPath><clipPath id="e9cdfab99b"><path d="M 56 5 L 58.769531 5 L 58.769531 9 L 56 9 Z M 56 5 " clip-rule="nonzero"/></clipPath><clipPath id="eed9af6585"><path d="M 15.800781 6 L 58 6 L 58 12.671875 L 15.800781 12.671875 Z M 15.800781 6 " clip-rule="nonzero"/></clipPath><clipPath id="9c240877b2"><path d="M 46 3.980469 L 49 3.980469 L 49 7 L 46 7 Z M 46 3.980469 " clip-rule="nonzero"/></clipPath><clipPath id="e1bc44cf8f"><path d="M 15.800781 4 L 48 4 L 48 11 L 15.800781 11 Z M 15.800781 4 " clip-rule="nonzero"/></clipPath><clipPath id="e064a5c6e9"><path d="M 0.96875 0.359375 L 27 0.359375 L 27 11 L 0.96875 11 Z M 0.96875 0.359375 " clip-rule="nonzero"/></clipPath><clipPath id="d150e2099e"><path d="M 21 3 L 26.285156 3 L 26.285156 9 L 21 9 Z M 21 3 " clip-rule="nonzero"/></clipPath><clipPath id="f76e850e59"><rect x="0" width="27" y="0" height="11"/></clipPath><clipPath id="eb1271e521"><rect x="0" width="60" y="0" height="13"/></clipPath></defs><g clip-path="url(#65040213ea)"><g transform="matrix(1, 0, 0, 1, 0, 8)"><g clip-path="url(#eb1271e521)"><path fill="#ffffff" d="M 46.242188 8.847656 C 46.242188 9.054688 46.167969 9.234375 46.019531 9.382812 C 45.871094 9.53125 45.691406 9.605469 45.484375 9.605469 C 45.273438 9.605469 45.09375 9.53125 44.945312 9.382812 C 44.800781 9.234375 44.726562 9.054688 44.726562 8.847656 C 44.726562 8.636719 44.800781 8.457031 44.945312 8.308594 C 45.09375 8.160156 45.273438 8.085938 45.484375 8.085938 C 45.691406 8.085938 45.871094 8.160156 46.019531 8.308594 C 46.167969 8.457031 46.242188 8.636719 46.242188 8.847656 Z M 46.242188 8.847656 " fill-opacity="1" fill-rule="nonzero"/><path fill="#ffffff" d="M 45.441406 9.035156 L 16.269531 8.875 L 45.441406 8.710938 Z M 45.441406 9.035156 " fill-opacity="1" fill-rule="nonzero"/><g clip-path="url(#6b84639c04)"><path fill="#ffffff" d="M 59.023438 6.9375 C 59.023438 7.089844 58.996094 7.234375 58.9375 7.375 C 58.878906 7.515625 58.796875 7.636719 58.6875 7.746094 C 58.582031 7.851562 58.457031 7.933594 58.320312 7.992188 C 58.179688 8.050781 58.03125 8.078125 57.882812 8.078125 C 57.730469 8.078125 57.582031 8.050781 57.445312 7.992188 C 57.304688 7.933594 57.179688 7.851562 57.074219 7.746094 C 56.964844 7.636719 56.882812 7.515625 56.824219 7.375 C 56.765625 7.234375 56.738281 7.089844 56.738281 6.9375 C 56.738281 6.785156 56.765625 6.640625 56.824219 6.5 C 56.882812 6.359375 56.964844 6.238281 57.074219 6.128906 C 57.179688 6.023438 57.304688 5.941406 57.445312 5.882812 C 57.582031 5.824219 57.730469 5.792969 57.882812 5.792969 C 58.03125 5.792969 58.179688 5.824219 58.320312 5.882812 C 58.457031 5.941406 58.582031 6.023438 58.6875 6.128906 C 58.796875 6.238281 58.878906 6.359375 58.9375 6.5 C 58.996094 6.640625 59.023438 6.785156 59.023438 6.9375 Z M 59.023438 6.9375 " fill-opacity="1" fill-rule="nonzero"/></g><g clip-path="url(#736c5dfb33)"><path fill="#ffffff" d="M 57.890625 7.097656 L 38.667969 7.03125 L 38.742188 7 L 33.457031 12.480469 L 33.433594 12.503906 L 33.402344 12.503906 L 15.800781 12.429688 L 33.402344 12.351562 L 33.347656 12.375 L 38.59375 6.855469 L 38.621094 6.824219 L 38.667969 6.824219 L 57.890625 6.777344 Z M 57.890625 7.097656 " fill-opacity="1" fill-rule="nonzero"/></g><g clip-path="url(#e9cdfab99b)"><path fill="#ffffff" d="M 59.023438 6.9375 C 59.023438 7.089844 58.996094 7.234375 58.9375 7.375 C 58.878906 7.515625 58.796875 7.636719 58.6875 7.746094 C 58.582031 7.851562 58.457031 7.933594 58.320312 7.992188 C 58.179688 8.050781 58.03125 8.078125 57.882812 8.078125 C 57.730469 8.078125 57.582031 8.050781 57.445312 7.992188 C 57.304688 7.933594 57.179688 7.851562 57.074219 7.746094 C 56.964844 7.636719 56.882812 7.515625 56.824219 7.375 C 56.765625 7.234375 56.738281 7.089844 56.738281 6.9375 C 56.738281 6.785156 56.765625 6.640625 56.824219 6.5 C 56.882812 6.359375 56.964844 6.238281 57.074219 6.128906 C 57.179688 6.023438 57.304688 5.941406 57.445312 5.882812 C 57.582031 5.824219 57.730469 5.792969 57.882812 5.792969 C 58.03125 5.792969 58.179688 5.824219 58.320312 5.882812 C 58.457031 5.941406 58.582031 6.023438 58.6875 6.128906 C 58.796875 6.238281 58.878906 6.359375 58.9375 6.5 C 58.996094 6.640625 59.023438 6.785156 59.023438 6.9375 Z M 59.023438 6.9375 " fill-opacity="1" fill-rule="nonzero"/></g><g clip-path="url(#eed9af6585)"><path fill="#ffffff" d="M 57.890625 7.097656 L 38.667969 7.03125 L 38.742188 7 L 33.457031 12.480469 L 33.433594 12.503906 L 33.402344 12.503906 L 15.800781 12.429688 L 33.402344 12.351562 L 33.347656 12.375 L 38.59375 6.855469 L 38.621094 6.824219 L 38.667969 6.824219 L 57.890625 6.777344 Z M 57.890625 7.097656 " fill-opacity="1" fill-rule="nonzero"/></g><g clip-path="url(#9c240877b2)"><path fill="#ffffff" d="M 48.445312 5.132812 C 48.445312 5.285156 48.414062 5.429688 48.359375 5.570312 C 48.300781 5.710938 48.21875 5.832031 48.109375 5.941406 C 48.003906 6.046875 47.878906 6.128906 47.738281 6.1875 C 47.597656 6.246094 47.453125 6.273438 47.300781 6.273438 C 47.148438 6.273438 47.003906 6.246094 46.863281 6.1875 C 46.722656 6.128906 46.601562 6.046875 46.492188 5.941406 C 46.386719 5.832031 46.304688 5.710938 46.246094 5.570312 C 46.1875 5.429688 46.160156 5.285156 46.160156 5.132812 C 46.160156 4.980469 46.1875 4.835938 46.246094 4.695312 C 46.304688 4.554688 46.386719 4.429688 46.492188 4.324219 C 46.601562 4.21875 46.722656 4.132812 46.863281 4.078125 C 47.003906 4.019531 47.148438 3.988281 47.300781 3.988281 C 47.453125 3.988281 47.597656 4.019531 47.738281 4.078125 C 47.878906 4.132812 48.003906 4.21875 48.109375 4.324219 C 48.21875 4.429688 48.300781 4.554688 48.359375 4.695312 C 48.414062 4.835938 48.445312 4.980469 48.445312 5.132812 Z M 48.445312 5.132812 " fill-opacity="1" fill-rule="nonzero"/></g><g clip-path="url(#e1bc44cf8f)"><path fill="#ffffff" d="M 47.105469 5.292969 L 44.320312 5.277344 L 42.929688 5.273438 L 42.234375 5.269531 L 42.074219 5.269531 C 42.070312 5.511719 42.085938 4.941406 42.074219 5 L 42.246094 5 L 42.59375 5.003906 L 42.945312 5.007812 L 43.121094 5.011719 L 43.128906 5.011719 C 43.144531 4.953125 43.125 5.5 43.125 5.269531 L 42.957031 5.269531 L 42.261719 5.265625 L 40.867188 5.257812 L 38.085938 5.246094 L 38.160156 5.214844 L 32.875 10.546875 L 32.851562 10.570312 L 32.820312 10.570312 L 15.929688 10.496094 L 32.820312 10.417969 L 32.765625 10.441406 L 38.011719 5.070312 L 38.042969 5.039062 L 38.085938 5.039062 L 42.953125 5.011719 L 43.117188 5.011719 C 43.121094 4.78125 43.105469 5.328125 43.117188 5.269531 L 42.0625 5.269531 C 42.046875 5.328125 42.066406 4.761719 42.0625 5 L 42.234375 5 L 44.320312 4.988281 L 47.105469 4.972656 Z M 47.105469 5.292969 " fill-opacity="1" fill-rule="nonzero"/></g><g clip-path="url(#e064a5c6e9)"><g transform="matrix(1, 0, 0, 1, 0, 0.000000000000005329)"><g clip-path="url(#f76e850e59)"><g fill="#ffffff" fill-opacity="1"><g transform="translate(0.967741, 8.287757)"><g><path d="M 2.578125 0 L 0.515625 0 L 0.515625 -5.859375 L 2.59375 -5.859375 C 3.1875 -5.859375 3.695312 -5.738281 4.125 -5.5 C 4.550781 -5.269531 4.878906 -4.9375 5.109375 -4.5 C 5.335938 -4.0625 5.453125 -3.539062 5.453125 -2.9375 C 5.453125 -2.320312 5.332031 -1.796875 5.09375 -1.359375 C 4.863281 -0.921875 4.535156 -0.582031 4.109375 -0.34375 C 3.679688 -0.113281 3.171875 0 2.578125 0 Z M 1.75 -1.0625 L 2.53125 -1.0625 C 3.082031 -1.0625 3.5 -1.207031 3.78125 -1.5 C 4.070312 -1.800781 4.21875 -2.28125 4.21875 -2.9375 C 4.21875 -3.582031 4.070312 -4.050781 3.78125 -4.34375 C 3.5 -4.644531 3.082031 -4.796875 2.53125 -4.796875 L 1.75 -4.796875 Z M 1.75 -1.0625 "/></g></g></g><g fill="#ffffff" fill-opacity="1"><g transform="translate(6.459358, 8.287757)"><g><path d="M 5.671875 -3.796875 L 4.421875 -3.796875 C 4.367188 -4.117188 4.226562 -4.375 4 -4.5625 C 3.78125 -4.75 3.5 -4.84375 3.15625 -4.84375 C 2.707031 -4.84375 2.34375 -4.675781 2.0625 -4.34375 C 1.789062 -4.007812 1.65625 -3.535156 1.65625 -2.921875 C 1.65625 -2.296875 1.789062 -1.820312 2.0625 -1.5 C 2.34375 -1.175781 2.707031 -1.015625 3.15625 -1.015625 C 3.476562 -1.015625 3.753906 -1.097656 3.984375 -1.265625 C 4.210938 -1.441406 4.359375 -1.6875 4.421875 -2 L 5.671875 -2 C 5.628906 -1.632812 5.5 -1.296875 5.28125 -0.984375 C 5.070312 -0.671875 4.785156 -0.414062 4.421875 -0.21875 C 4.066406 -0.0195312 3.632812 0.078125 3.125 0.078125 C 2.601562 0.078125 2.140625 -0.0351562 1.734375 -0.265625 C 1.328125 -0.503906 1.003906 -0.847656 0.765625 -1.296875 C 0.523438 -1.742188 0.40625 -2.285156 0.40625 -2.921875 C 0.40625 -3.566406 0.523438 -4.109375 0.765625 -4.546875 C 1.003906 -4.992188 1.328125 -5.335938 1.734375 -5.578125 C 2.148438 -5.816406 2.613281 -5.9375 3.125 -5.9375 C 3.582031 -5.9375 3.988281 -5.851562 4.34375 -5.6875 C 4.707031 -5.519531 5.003906 -5.273438 5.234375 -4.953125 C 5.472656 -4.640625 5.617188 -4.253906 5.671875 -3.796875 Z M 5.671875 -3.796875 "/></g></g></g><g fill="#ffffff" fill-opacity="1"><g transform="translate(12.15106, 8.287757)"><g><path d="M 0.28125 -4.828125 L 0.28125 -5.859375 L 5.09375 -5.859375 L 5.09375 -4.828125 L 3.296875 -4.828125 L 3.296875 0 L 2.078125 0 L 2.078125 -4.828125 Z M 0.28125 -4.828125 "/></g></g></g><g fill="#ffffff" fill-opacity="1"><g transform="translate(17.168188, 8.287757)"><g><path d="M 2.484375 0.078125 C 2.035156 0.078125 1.644531 -0.0078125 1.3125 -0.1875 C 0.988281 -0.375 0.738281 -0.632812 0.5625 -0.96875 C 0.394531 -1.3125 0.3125 -1.710938 0.3125 -2.171875 C 0.3125 -2.628906 0.394531 -3.023438 0.5625 -3.359375 C 0.738281 -3.703125 0.988281 -3.96875 1.3125 -4.15625 C 1.632812 -4.351562 2.007812 -4.453125 2.4375 -4.453125 C 2.820312 -4.453125 3.171875 -4.367188 3.484375 -4.203125 C 3.796875 -4.035156 4.039062 -3.785156 4.21875 -3.453125 C 4.40625 -3.128906 4.5 -2.71875 4.5 -2.21875 L 4.5 -1.890625 L 1.515625 -1.890625 L 1.515625 -1.875 C 1.515625 -1.550781 1.601562 -1.296875 1.78125 -1.109375 C 1.957031 -0.921875 2.195312 -0.828125 2.5 -0.828125 C 2.707031 -0.828125 2.882812 -0.867188 3.03125 -0.953125 C 3.175781 -1.035156 3.28125 -1.160156 3.34375 -1.328125 L 4.46875 -1.25 C 4.382812 -0.84375 4.164062 -0.519531 3.8125 -0.28125 C 3.46875 -0.0390625 3.023438 0.078125 2.484375 0.078125 Z M 1.515625 -2.640625 L 3.359375 -2.640625 C 3.359375 -2.898438 3.273438 -3.113281 3.109375 -3.28125 C 2.941406 -3.445312 2.722656 -3.53125 2.453125 -3.53125 C 2.179688 -3.53125 1.957031 -3.441406 1.78125 -3.265625 C 1.613281 -3.097656 1.523438 -2.890625 1.515625 -2.640625 Z M 1.515625 -2.640625 "/></g></g></g><g clip-path="url(#d150e2099e)"><g fill="#ffffff" fill-opacity="1"><g transform="translate(21.616504, 8.287757)"><g><path d="M 2.46875 0.078125 C 2.019531 0.078125 1.632812 -0.015625 1.3125 -0.203125 C 0.988281 -0.390625 0.738281 -0.65625 0.5625 -1 C 0.394531 -1.34375 0.3125 -1.734375 0.3125 -2.171875 C 0.3125 -2.628906 0.394531 -3.023438 0.5625 -3.359375 C 0.738281 -3.703125 0.988281 -3.96875 1.3125 -4.15625 C 1.632812 -4.351562 2.019531 -4.453125 2.46875 -4.453125 C 2.84375 -4.453125 3.175781 -4.378906 3.46875 -4.234375 C 3.757812 -4.097656 3.988281 -3.90625 4.15625 -3.65625 C 4.320312 -3.40625 4.410156 -3.109375 4.421875 -2.765625 L 3.28125 -2.765625 C 3.25 -2.984375 3.160156 -3.160156 3.015625 -3.296875 C 2.878906 -3.429688 2.703125 -3.5 2.484375 -3.5 C 2.203125 -3.5 1.972656 -3.382812 1.796875 -3.15625 C 1.628906 -2.925781 1.546875 -2.601562 1.546875 -2.1875 C 1.546875 -1.769531 1.628906 -1.445312 1.796875 -1.21875 C 1.972656 -0.988281 2.203125 -0.875 2.484375 -0.875 C 2.691406 -0.875 2.863281 -0.9375 3 -1.0625 C 3.144531 -1.1875 3.238281 -1.367188 3.28125 -1.609375 L 4.421875 -1.609375 C 4.410156 -1.273438 4.320312 -0.976562 4.15625 -0.71875 C 3.988281 -0.46875 3.757812 -0.269531 3.46875 -0.125 C 3.1875 0.0078125 2.851562 0.078125 2.46875 0.078125 Z M 2.46875 0.078125 "/></g></g></g></g></g></g></g></g></g></g></svg>